<svg width="1348" height="576" viewBox="0 0 1348 576" fill="none" xmlns="http://www.w3.org/2000/svg">
<path d="M743.12 161.28C734.8 161.28 727.493 159.68 721.2 156.48C714.907 153.173 710.053 148.587 706.64 142.72C703.227 136.853 701.52 130.08 701.52 122.4V85.44C701.52 77.76 703.227 70.9867 706.64 65.12C710.053 59.2533 714.907 54.72 721.2 51.52C727.493 48.32 734.8 46.72 743.12 46.72C751.333 46.72 758.533 48.2667 764.72 51.36C771.013 54.3467 775.867 58.6667 779.28 64.32C782.8 69.8667 784.56 76.32 784.56 83.68C784.56 84.64 783.92 85.2267 782.64 85.44L763.92 86.56H763.6C762.533 86.56 762 85.9733 762 84.8C762 79.1467 760.24 74.6133 756.72 71.2C753.307 67.7867 748.773 66.08 743.12 66.08C737.36 66.08 732.72 67.7867 729.2 71.2C725.787 74.6133 724.08 79.1467 724.08 84.8V123.36C724.08 128.907 725.787 133.387 729.2 136.8C732.72 140.213 737.36 141.92 743.12 141.92C748.773 141.92 753.307 140.213 756.72 136.8C760.24 133.387 762 128.907 762 123.36C762 122.187 762.64 121.6 763.92 121.6L782.64 122.4C783.173 122.4 783.6 122.56 783.92 122.88C784.347 123.2 784.56 123.573 784.56 124C784.56 131.36 782.8 137.867 779.28 143.52C775.867 149.173 771.013 153.547 764.72 156.64C758.533 159.733 751.333 161.28 743.12 161.28ZM833.595 76.48C840.528 76.48 846.715 77.7067 852.155 80.16C857.595 82.5067 861.808 85.76 864.795 89.92C867.888 94.08 869.435 98.72 869.435 103.84V158.08C869.435 158.613 869.222 159.093 868.795 159.52C868.475 159.84 868.048 160 867.515 160H848.795C848.262 160 847.782 159.84 847.355 159.52C847.035 159.093 846.875 158.613 846.875 158.08V152.8C846.875 152.48 846.768 152.267 846.555 152.16C846.342 152.053 846.128 152.16 845.915 152.48C841.435 158.347 834.235 161.28 824.315 161.28C815.995 161.28 809.275 159.253 804.155 155.2C799.035 151.147 796.475 145.173 796.475 137.28C796.475 129.067 799.355 122.72 805.115 118.24C810.875 113.653 819.088 111.36 829.755 111.36H846.075C846.608 111.36 846.875 111.093 846.875 110.56V107.04C846.875 103.52 845.808 100.8 843.675 98.88C841.542 96.8533 838.342 95.84 834.075 95.84C830.768 95.84 827.995 96.4267 825.755 97.6C823.622 98.7733 822.235 100.427 821.595 102.56C821.275 103.733 820.582 104.267 819.515 104.16L800.155 101.6C798.875 101.387 798.288 100.907 798.395 100.16C798.822 95.68 800.582 91.6267 803.675 88C806.875 84.3733 811.035 81.5467 816.155 79.52C821.382 77.4933 827.195 76.48 833.595 76.48ZM830.395 144.48C834.982 144.48 838.875 143.253 842.075 140.8C845.275 138.347 846.875 135.2 846.875 131.36V125.6C846.875 125.067 846.608 124.8 846.075 124.8H834.555C829.755 124.8 825.968 125.707 823.195 127.52C820.528 129.333 819.195 131.893 819.195 135.2C819.195 138.08 820.208 140.373 822.235 142.08C824.262 143.68 826.982 144.48 830.395 144.48ZM932.407 93.92C932.407 94.4533 932.194 94.9333 931.768 95.36C931.447 95.68 931.021 95.84 930.487 95.84H915.127C914.594 95.84 914.327 96.1067 914.327 96.64V130.56C914.327 134.08 915.021 136.693 916.407 138.4C917.901 140.107 920.247 140.96 923.447 140.96H928.727C929.261 140.96 929.688 141.173 930.007 141.6C930.434 141.92 930.648 142.347 930.648 142.88V158.08C930.648 159.253 930.007 159.947 928.727 160.16C924.247 160.373 921.047 160.48 919.127 160.48C910.274 160.48 903.661 159.04 899.287 156.16C894.914 153.173 892.674 147.627 892.567 139.52V96.64C892.567 96.1067 892.301 95.84 891.767 95.84H882.647C882.114 95.84 881.634 95.68 881.207 95.36C880.887 94.9333 880.727 94.4533 880.727 93.92V79.68C880.727 79.1467 880.887 78.72 881.207 78.4C881.634 77.9733 882.114 77.76 882.647 77.76H891.767C892.301 77.76 892.567 77.4933 892.567 76.96V57.92C892.567 57.3867 892.727 56.96 893.047 56.64C893.474 56.2133 893.954 56 894.487 56H912.407C912.941 56 913.367 56.2133 913.687 56.64C914.114 56.96 914.327 57.3867 914.327 57.92V76.96C914.327 77.4933 914.594 77.76 915.127 77.76H930.487C931.021 77.76 931.447 77.9733 931.768 78.4C932.194 78.72 932.407 79.1467 932.407 79.68V93.92ZM1019.3 110.4C1019.94 114.453 1020.15 118.987 1019.94 124C1019.83 125.28 1019.14 125.92 1017.86 125.92H968.415C967.775 125.92 967.562 126.187 967.775 126.72C968.095 128.853 968.682 130.987 969.535 133.12C972.308 139.093 977.962 142.08 986.495 142.08C993.322 141.973 998.708 139.2 1002.66 133.76C1003.08 133.12 1003.56 132.8 1004.1 132.8C1004.42 132.8 1004.79 133.013 1005.22 133.44L1016.74 144.8C1017.27 145.333 1017.54 145.813 1017.54 146.24C1017.54 146.453 1017.32 146.88 1016.9 147.52C1013.38 151.893 1008.84 155.307 1003.3 157.76C997.748 160.107 991.668 161.28 985.055 161.28C975.882 161.28 968.095 159.2 961.695 155.04C955.402 150.88 950.868 145.067 948.095 137.6C945.855 132.267 944.735 125.28 944.735 116.64C944.735 110.773 945.535 105.6 947.135 101.12C949.588 93.5467 953.855 87.52 959.935 83.04C966.122 78.56 973.428 76.32 981.855 76.32C992.522 76.32 1001.06 79.4133 1007.46 85.6C1013.96 91.7867 1017.91 100.053 1019.3 110.4ZM982.015 95.84C975.295 95.84 970.868 98.9867 968.735 105.28C968.308 106.667 967.935 108.373 967.615 110.4C967.615 110.933 967.882 111.2 968.415 111.2H996.095C996.735 111.2 996.948 110.933 996.735 110.4C996.202 107.307 995.935 105.813 995.935 105.92C994.975 102.72 993.268 100.267 990.815 98.56C988.468 96.7467 985.535 95.84 982.015 95.84ZM1078.32 76.48C1086.85 76.48 1093.73 79.0933 1098.96 84.32C1104.19 89.5467 1106.8 96.64 1106.8 105.6V158.08C1106.8 158.613 1106.59 159.093 1106.16 159.52C1105.84 159.84 1105.41 160 1104.88 160H1086.16C1085.63 160 1085.15 159.84 1084.72 159.52C1084.4 159.093 1084.24 158.613 1084.24 158.08V110.24C1084.24 105.973 1083.01 102.507 1080.56 99.84C1078.21 97.1733 1075.07 95.84 1071.12 95.84C1067.17 95.84 1063.97 97.1733 1061.52 99.84C1059.17 102.507 1058 105.973 1058 110.24V158.08C1058 158.613 1057.79 159.093 1057.36 159.52C1057.04 159.84 1056.61 160 1056.08 160H1037.36C1036.83 160 1036.35 159.84 1035.92 159.52C1035.6 159.093 1035.44 158.613 1035.44 158.08V79.68C1035.44 79.1467 1035.6 78.72 1035.92 78.4C1036.35 77.9733 1036.83 77.76 1037.36 77.76H1056.08C1056.61 77.76 1057.04 77.9733 1057.36 78.4C1057.79 78.72 1058 79.1467 1058 79.68V85.28C1058 85.6 1058.11 85.8133 1058.32 85.92C1058.53 86.0267 1058.69 85.9733 1058.8 85.76C1063.17 79.5733 1069.68 76.48 1078.32 76.48ZM1157.34 76.48C1164.27 76.48 1170.46 77.7067 1175.9 80.16C1181.34 82.5067 1185.55 85.76 1188.54 89.92C1191.63 94.08 1193.18 98.72 1193.18 103.84V158.08C1193.18 158.613 1192.97 159.093 1192.54 159.52C1192.22 159.84 1191.79 160 1191.26 160H1172.54C1172.01 160 1171.53 159.84 1171.1 159.52C1170.78 159.093 1170.62 158.613 1170.62 158.08V152.8C1170.62 152.48 1170.51 152.267 1170.3 152.16C1170.09 152.053 1169.87 152.16 1169.66 152.48C1165.18 158.347 1157.98 161.28 1148.06 161.28C1139.74 161.28 1133.02 159.253 1127.9 155.2C1122.78 151.147 1120.22 145.173 1120.22 137.28C1120.22 129.067 1123.1 122.72 1128.86 118.24C1134.62 113.653 1142.83 111.36 1153.5 111.36H1169.82C1170.35 111.36 1170.62 111.093 1170.62 110.56V107.04C1170.62 103.52 1169.55 100.8 1167.42 98.88C1165.29 96.8533 1162.09 95.84 1157.82 95.84C1154.51 95.84 1151.74 96.4267 1149.5 97.6C1147.37 98.7733 1145.98 100.427 1145.34 102.56C1145.02 103.733 1144.33 104.267 1143.26 104.16L1123.9 101.6C1122.62 101.387 1122.03 100.907 1122.14 100.16C1122.57 95.68 1124.33 91.6267 1127.42 88C1130.62 84.3733 1134.78 81.5467 1139.9 79.52C1145.13 77.4933 1150.94 76.48 1157.34 76.48ZM1154.14 144.48C1158.73 144.48 1162.62 143.253 1165.82 140.8C1169.02 138.347 1170.62 135.2 1170.62 131.36V125.6C1170.62 125.067 1170.35 124.8 1169.82 124.8H1158.3C1153.5 124.8 1149.71 125.707 1146.94 127.52C1144.27 129.333 1142.94 131.893 1142.94 135.2C1142.94 138.08 1143.95 140.373 1145.98 142.08C1148.01 143.68 1150.73 144.48 1154.14 144.48ZM1251.63 76.64C1255.47 76.64 1258.51 77.3867 1260.75 78.88C1261.6 79.3067 1261.92 80.1067 1261.71 81.28L1258.35 99.52C1258.24 100.8 1257.5 101.173 1256.11 100.64C1254.51 100.107 1252.64 99.84 1250.51 99.84C1249.66 99.84 1248.48 99.9467 1246.99 100.16C1243.15 100.48 1239.9 101.92 1237.23 104.48C1234.56 106.933 1233.23 110.24 1233.23 114.4V158.08C1233.23 158.613 1233.02 159.093 1232.59 159.52C1232.27 159.84 1231.84 160 1231.31 160H1212.59C1212.06 160 1211.58 159.84 1211.15 159.52C1210.83 159.093 1210.67 158.613 1210.67 158.08V79.68C1210.67 79.1467 1210.83 78.72 1211.15 78.4C1211.58 77.9733 1212.06 77.76 1212.59 77.76H1231.31C1231.84 77.76 1232.27 77.9733 1232.59 78.4C1233.02 78.72 1233.23 79.1467 1233.23 79.68V85.76C1233.23 86.08 1233.34 86.2933 1233.55 86.4C1233.76 86.5067 1233.92 86.4533 1234.03 86.24C1238.4 79.84 1244.27 76.64 1251.63 76.64ZM1274.76 191.84C1274.44 191.84 1274.17 191.627 1273.96 191.2C1273.75 190.88 1273.64 190.453 1273.64 189.92V175.2C1273.64 174.667 1273.8 174.187 1274.12 173.76C1274.55 173.44 1275.03 173.28 1275.56 173.28C1280.04 173.173 1283.56 172.8 1286.12 172.16C1288.79 171.52 1290.87 170.293 1292.36 168.48C1293.96 166.667 1295.19 164 1296.04 160.48C1296.15 160.267 1296.15 159.947 1296.04 159.52L1269.8 79.84C1269.69 79.6267 1269.64 79.36 1269.64 79.04C1269.64 78.08 1270.23 77.6 1271.4 77.6H1291.4C1292.57 77.6 1293.32 78.1333 1293.64 79.2L1307.08 131.04C1307.19 131.36 1307.35 131.52 1307.56 131.52C1307.77 131.52 1307.93 131.36 1308.04 131.04L1321.48 79.2C1321.8 78.1333 1322.55 77.6 1323.72 77.6H1343.24C1343.88 77.6 1344.31 77.8133 1344.52 78.24C1344.84 78.56 1344.89 79.0933 1344.68 79.84L1317 163.04C1314.33 170.827 1311.61 176.64 1308.84 180.48C1306.07 184.427 1302.17 187.307 1297.16 189.12C1292.15 190.933 1285.05 191.84 1275.88 191.84H1274.76Z" fill="#42A7C5"/>
<path d="M175.607 329.18C304.941 272.217 246.322 120.052 250.898 31.3695C157.219 1.88298 136.002 58.2541 175.607 329.18Z" fill="#C46294"/>
<path d="M26.7273 39.2306C20.792 80.9596 36.8197 345.553 183.617 300.864L180.605 290.467C127.287 201.674 109.621 -9.02712 26.7273 39.2306Z" fill="#C96D9C"/>
<path d="M164.133 250.292V250.292C163.044 336.629 179.713 422.266 213.106 501.883L219.923 518.135" stroke="#E470AB" stroke-width="19"/>
<path d="M175.609 329.18C164.127 281.606 -11.1084 22.9403 107.577 28.6389C385.217 41.9697 175.322 267.696 175.609 329.18Z" fill="#E470AB"/>
<path d="M617.2 216C618.533 216 619.6 216.533 620.4 217.6C621.467 218.4 622 219.467 622 220.8V251.6C622 252.933 621.467 254.133 620.4 255.2C619.6 256 618.533 256.4 617.2 256.4H543.6C542.267 256.4 541.6 257.067 541.6 258.4V491.2C541.6 492.533 541.067 493.733 540 494.8C539.2 495.6 538.133 496 536.8 496H500C498.667 496 497.467 495.6 496.4 494.8C495.6 493.733 495.2 492.533 495.2 491.2V258.4C495.2 257.067 494.533 256.4 493.2 256.4H422.4C421.067 256.4 419.867 256 418.8 255.2C418 254.133 417.6 252.933 417.6 251.6V220.8C417.6 219.467 418 218.4 418.8 217.6C419.867 216.533 421.067 216 422.4 216H617.2ZM766.881 296.4C766.881 295.067 767.281 294 768.081 293.2C769.148 292.133 770.348 291.6 771.681 291.6H808.081C809.415 291.6 810.481 292.133 811.281 293.2C812.348 294 812.881 295.067 812.881 296.4V491.2C812.881 492.533 812.348 493.733 811.281 494.8C810.481 495.6 809.415 496 808.081 496H771.681C770.348 496 769.148 495.6 768.081 494.8C767.281 493.733 766.881 492.533 766.881 491.2V478.4C766.881 477.6 766.615 477.067 766.081 476.8C765.548 476.533 765.015 476.8 764.481 477.6C753.548 491.733 737.148 498.8 715.281 498.8C695.015 498.8 677.948 492.933 664.081 481.2C650.481 469.467 643.681 452.8 643.681 431.2V296.4C643.681 295.067 644.081 294 644.881 293.2C645.948 292.133 647.148 291.6 648.481 291.6H685.281C686.615 291.6 687.681 292.133 688.481 293.2C689.548 294 690.081 295.067 690.081 296.4V418C690.081 430.533 693.281 440.533 699.681 448C706.348 455.467 715.548 459.2 727.281 459.2C739.281 459.2 748.881 455.467 756.081 448C763.281 440.533 766.881 430.533 766.881 418V296.4ZM871.288 496C869.954 496 868.754 495.6 867.688 494.8C866.888 493.733 866.488 492.533 866.488 491.2V220.8C866.488 219.467 866.888 218.4 867.688 217.6C868.754 216.533 869.954 216 871.288 216H908.088C909.421 216 910.488 216.533 911.288 217.6C912.354 218.4 912.888 219.467 912.888 220.8V491.2C912.888 492.533 912.354 493.733 911.288 494.8C910.488 495.6 909.421 496 908.088 496H871.288ZM992.591 263.6C984.324 263.6 977.524 260.933 972.191 255.6C966.857 250.267 964.191 243.467 964.191 235.2C964.191 226.933 966.857 220.133 972.191 214.8C977.524 209.467 984.324 206.8 992.591 206.8C1000.86 206.8 1007.66 209.467 1012.99 214.8C1018.32 220.133 1020.99 226.933 1020.99 235.2C1020.99 243.467 1018.32 250.267 1012.99 255.6C1007.66 260.933 1000.86 263.6 992.591 263.6ZM973.391 496C972.057 496 970.857 495.6 969.791 494.8C968.991 493.733 968.591 492.533 968.591 491.2V296C968.591 294.667 968.991 293.6 969.791 292.8C970.857 291.733 972.057 291.2 973.391 291.2H1010.19C1011.52 291.2 1012.59 291.733 1013.39 292.8C1014.46 293.6 1014.99 294.667 1014.99 296V491.2C1014.99 492.533 1014.46 493.733 1013.39 494.8C1012.59 495.6 1011.52 496 1010.19 496H973.391ZM1245.34 344.4C1250.14 358 1252.54 374.667 1252.54 394.4C1252.54 413.333 1250.28 429.6 1245.74 443.2C1239.88 460.8 1230.41 474.533 1217.34 484.4C1204.54 494.267 1188.28 499.2 1168.54 499.2C1149.61 499.2 1134.41 492.4 1122.94 478.8C1122.41 478.267 1121.88 478.133 1121.34 478.4C1120.81 478.667 1120.54 479.2 1120.54 480V566.8C1120.54 568.133 1120.01 569.2 1118.94 570C1118.14 571.067 1117.08 571.6 1115.74 571.6H1078.94C1077.61 571.6 1076.41 571.067 1075.34 570C1074.54 569.2 1074.14 568.133 1074.14 566.8V296.4C1074.14 295.067 1074.54 294 1075.34 293.2C1076.41 292.133 1077.61 291.6 1078.94 291.6H1115.74C1117.08 291.6 1118.14 292.133 1118.94 293.2C1120.01 294 1120.54 295.067 1120.54 296.4V308.4C1120.54 309.2 1120.81 309.733 1121.34 310C1121.88 310.267 1122.41 310 1122.94 309.2C1134.68 295.333 1150.01 288.4 1168.94 288.4C1187.88 288.4 1203.88 293.333 1216.94 303.2C1230.01 313.067 1239.48 326.8 1245.34 344.4ZM1193.34 442.4C1201.34 430.133 1205.34 413.867 1205.34 393.6C1205.34 374.133 1202.14 358.8 1195.74 347.6C1188.28 334.533 1176.94 328 1161.74 328C1147.88 328 1137.48 334.4 1130.54 347.2C1124.41 357.6 1121.34 373.067 1121.34 393.6C1121.34 414.667 1124.68 430.667 1131.34 441.6C1138.28 453.333 1148.28 459.2 1161.34 459.2C1175.48 459.2 1186.14 453.6 1193.34 442.4Z" fill="#E470AB"/>
<path d="M414.176 129.823C419.796 129.823 424.351 125.28 424.351 119.676C424.351 114.072 419.796 109.529 414.176 109.529C408.556 109.529 404 114.072 404 119.676C404 125.28 408.556 129.823 414.176 129.823Z" fill="#42A7C5"/>
<path d="M414.176 129.823C419.796 129.823 424.351 125.28 424.351 119.676C424.351 114.072 419.796 109.529 414.176 109.529C408.556 109.529 404 114.072 404 119.676C404 125.28 408.556 129.823 414.176 129.823Z" stroke="#42A7C5"/>
<path d="M644.824 82.4703C650.444 82.4703 655 77.9275 655 72.3235C655 66.7196 650.444 62.1768 644.824 62.1768C639.204 62.1768 634.648 66.7196 634.648 72.3235C634.648 77.9275 639.204 82.4703 644.824 82.4703Z" fill="#42A7C5"/>
<path d="M644.824 82.4703C650.444 82.4703 655 77.9275 655 72.3235C655 66.7196 650.444 62.1768 644.824 62.1768C639.204 62.1768 634.648 66.7196 634.648 72.3235C634.648 77.9275 639.204 82.4703 644.824 82.4703Z" stroke="#42A7C5"/>
<path d="M556.634 24.972C555.689 25.9142 554.939 27.0334 554.427 28.2644C553.916 29.4955 553.653 30.815 553.653 32.1474C553.653 33.4799 553.916 34.7994 554.427 36.0304C554.939 37.2615 555.688 38.38 556.633 39.3222L579.554 62.1759H515.93C500.048 62.1759 484.945 69.1035 474.609 81.1275L447.642 112.501C445.84 114.597 444.898 117.294 445.004 120.053C445.11 122.811 446.257 125.428 448.214 127.381L487.973 167.028C488.918 167.97 490.039 168.717 491.274 169.227C492.508 169.737 493.832 170 495.168 170C496.504 170 497.827 169.737 499.062 169.227C500.296 168.717 501.418 167.97 502.363 167.028L502.364 167.027C504.272 165.124 505.344 162.543 505.344 159.852C505.344 157.161 504.272 154.58 502.364 152.677L479.443 129.821H543.065C558.947 129.821 574.052 122.894 584.388 110.87L611.356 79.4961C613.158 77.4001 614.099 74.7031 613.993 71.9445C613.887 69.1859 612.74 66.5692 610.783 64.6171L571.025 24.972C569.117 23.0691 566.528 22 563.83 22C561.131 22 558.542 23.0692 556.634 24.972ZM515.93 82.4698H581.996L568.936 97.6632C562.459 105.198 553.018 109.528 543.065 109.528H477.001L490.062 94.3341C496.539 86.7987 505.977 82.4698 515.93 82.4698Z" fill="#42A7C5"/>
<path d="M556.634 24.972C555.689 25.9142 554.939 27.0334 554.427 28.2644C553.916 29.4955 553.653 30.815 553.653 32.1474C553.653 33.4799 553.916 34.7994 554.427 36.0304C554.939 37.2615 555.688 38.38 556.633 39.3222L579.554 62.1759H515.93C500.048 62.1759 484.945 69.1035 474.609 81.1275L447.642 112.501C445.84 114.597 444.898 117.294 445.004 120.053C445.11 122.811 446.257 125.428 448.214 127.381L487.973 167.028C488.918 167.97 490.039 168.717 491.274 169.227C492.508 169.737 493.832 170 495.168 170C496.504 170 497.827 169.737 499.062 169.227C500.296 168.717 501.418 167.97 502.363 167.028L502.364 167.027C504.272 165.124 505.344 162.543 505.344 159.852C505.344 157.161 504.272 154.58 502.364 152.677L479.443 129.821H543.065C558.947 129.821 574.052 122.894 584.388 110.87L611.356 79.4961C613.158 77.4001 614.099 74.7031 613.993 71.9445C613.887 69.1859 612.74 66.5692 610.783 64.6171L571.025 24.972C569.117 23.0691 566.528 22 563.83 22C561.131 22 558.542 23.0692 556.634 24.972ZM515.93 82.4698H581.996L568.936 97.6632C562.459 105.198 553.018 109.528 543.065 109.528H477.001L490.062 94.3341C496.539 86.7987 505.977 82.4698 515.93 82.4698Z" stroke="#42A7C5"/>
</svg>
